<?xml version="1.0" encoding="utf-8"?>
<!-- Generator: Adobe Illustrator 16.0.0, SVG Export Plug-In . SVG Version: 6.00 Build 0)  -->
<!DOCTYPE svg PUBLIC "-//W3C//DTD SVG 1.1//EN" "http://www.w3.org/Graphics/SVG/1.1/DTD/svg11.dtd">
<svg version="1.1" id="图层_1" xmlns="http://www.w3.org/2000/svg" x="0px" y="0px"
     width="20px" height="20px" viewBox="0 0 20 20" enable-background="new 0 0 20 20" xml:space="preserve">
<title>xiangxia</title>
<desc>Created with Sketch.</desc>
<g id="Symbols">
	<g id="xiangxia">
		
			<g id="Group" transform="translate(10.000000, 10.454545) rotate(180.000000) translate(-10.000000, -10.454545) translate(0.909091, 4.545455)">
			<g id="Path-16">
				<path fill="#202200" d="M9.091-0.909c0.212,0,0.426,0.074,0.598,0.225c0.378,0.331,0.416,0.905,0.085,1.283l-9.09,10.389
					c-0.332,0.378-0.905,0.415-1.283,0.085c-0.378-0.331-0.416-0.905-0.086-1.283L8.406-0.598C8.586-0.803,8.838-0.909,9.091-0.909z
					"/>
			</g>
			<g id="Path-16_1_">
				<path fill="#202200" d="M9.09-0.909c0.253,0,0.505,0.105,0.685,0.311l9.091,10.389c0.331,0.378,0.292,0.952-0.085,1.283
					c-0.378,0.331-0.952,0.293-1.283-0.085L8.406,0.599c-0.33-0.378-0.292-0.952,0.086-1.283C8.665-0.835,8.878-0.909,9.09-0.909z"
					/>
			</g>
			<g id="Path-17">
				<rect x="0" y="9.48" fill="#202200" width="18.182" height="1.818"/>
			</g>
		</g>
	</g>
</g>
</svg>
